<svg width="32" height="32" viewBox="0 0 32 32" fill="none" xmlns="http://www.w3.org/2000/svg">
  <!-- Background circle -->
  <circle cx="16" cy="16" r="14" fill="url(#gradient1)" stroke="url(#gradient2)" stroke-width="1"/>
  
  <!-- Gear/Spare part icon -->
  <g transform="translate(10, 10)">
    <!-- Main gear body -->
    <circle cx="6" cy="6" r="4.5" fill="white" opacity="0.9"/>
    <!-- Gear teeth -->
    <path d="M6 1L7 2.5L6 4L5 2.5Z" fill="white" opacity="0.8"/>
    <path d="M11 6L9.5 7L8 6L9.5 5Z" fill="white" opacity="0.8"/>
    <path d="M6 11L5 9.5L6 8L7 9.5Z" fill="white" opacity="0.8"/>
    <path d="M1 6L2.5 5L4 6L2.5 7Z" fill="white" opacity="0.8"/>
    <!-- Center hole -->
    <circle cx="6" cy="6" r="1.8" fill="url(#gradient1)"/>
  </g>
  
  <!-- Flow indicator -->
  <g transform="translate(22, 14)" opacity="0.8">
    <path d="M0 2L4 2M3 1L4 2L3 3" stroke="white" stroke-width="1.5" fill="none" stroke-linecap="round" stroke-linejoin="round"/>
  </g>
  
  <!-- AI dots -->
  <g transform="translate(8, 26)" opacity="0.6">
    <circle cx="2" cy="2" r="0.8" fill="white"/>
    <circle cx="6" cy="2" r="0.8" fill="white"/>
    <circle cx="10" cy="2" r="0.8" fill="white"/>
    <line x1="2.8" y1="2" x2="5.2" y2="2" stroke="white" stroke-width="0.4"/>
    <line x1="6.8" y1="2" x2="9.2" y2="2" stroke="white" stroke-width="0.4"/>
  </g>
  
  <!-- Gradients -->
  <defs>
    <linearGradient id="gradient1" x1="0%" y1="0%" x2="100%" y2="100%">
      <stop offset="0%" style="stop-color:#3B82F6;stop-opacity:1" />
      <stop offset="100%" style="stop-color:#1E40AF;stop-opacity:1" />
    </linearGradient>
    <linearGradient id="gradient2" x1="0%" y1="0%" x2="100%" y2="100%">
      <stop offset="0%" style="stop-color:#1E40AF;stop-opacity:1" />
      <stop offset="100%" style="stop-color:#1E3A8A;stop-opacity:1" />
    </linearGradient>
  </defs>
</svg>