<svg width="200" height="60" viewBox="0 0 200 60" fill="none" xmlns="http://www.w3.org/2000/svg">
  <!-- Background circle for the icon -->
  <circle cx="30" cy="30" r="25" fill="url(#gradient1)" stroke="url(#gradient2)" stroke-width="2"/>
  
  <!-- Gear/Spare part icon -->
  <g transform="translate(22, 22)">
    <!-- Main gear body -->
    <circle cx="8" cy="8" r="6" fill="white" opacity="0.9"/>
    <!-- Gear teeth -->
    <path d="M8 0L9.5 2L8 4L6.5 2Z" fill="white" opacity="0.8"/>
    <path d="M16 8L14 9.5L12 8L14 6.5Z" fill="white" opacity="0.8"/>
    <path d="M8 16L6.5 14L8 12L9.5 14Z" fill="white" opacity="0.8"/>
    <path d="M0 8L2 6.5L4 8L2 9.5Z" fill="white" opacity="0.8"/>
    <!-- Center hole -->
    <circle cx="8" cy="8" r="2.5" fill="url(#gradient1)"/>
  </g>
  
  <!-- Flow arrows -->
  <g transform="translate(45, 25)">
    <!-- Arrow 1 -->
    <path d="M0 5L8 5M6 3L8 5L6 7" stroke="url(#gradient2)" stroke-width="2" fill="none" stroke-linecap="round" stroke-linejoin="round"/>
    <!-- Arrow 2 -->
    <path d="M12 5L20 5M18 3L20 5L18 7" stroke="url(#gradient2)" stroke-width="2" fill="none" stroke-linecap="round" stroke-linejoin="round"/>
  </g>
  
  <!-- AI Circuit pattern -->
  <g transform="translate(20, 45)" opacity="0.6">
    <circle cx="3" cy="3" r="1" fill="url(#gradient2)"/>
    <circle cx="12" cy="3" r="1" fill="url(#gradient2)"/>
    <circle cx="25" cy="3" r="1" fill="url(#gradient2)"/>
    <line x1="4" y1="3" x2="11" y2="3" stroke="url(#gradient2)" stroke-width="0.5"/>
    <line x1="13" y1="3" x2="24" y2="3" stroke="url(#gradient2)" stroke-width="0.5"/>
  </g>
  
  <!-- Company name -->
  <text x="75" y="25" font-family="Arial, sans-serif" font-size="20" font-weight="bold" fill="url(#gradient2)">
    Spare
  </text>
  <text x="75" y="45" font-family="Arial, sans-serif" font-size="20" font-weight="bold" fill="url(#gradient3)">
    Flow
  </text>
  
  <!-- Tagline -->
  <text x="75" y="55" font-family="Arial, sans-serif" font-size="8" fill="#666" opacity="0.8">
    AI Spare Logistics Platform
  </text>
  
  <!-- Gradients -->
  <defs>
    <linearGradient id="gradient1" x1="0%" y1="0%" x2="100%" y2="100%">
      <stop offset="0%" style="stop-color:#3B82F6;stop-opacity:1" />
      <stop offset="100%" style="stop-color:#1E40AF;stop-opacity:1" />
    </linearGradient>
    <linearGradient id="gradient2" x1="0%" y1="0%" x2="100%" y2="100%">
      <stop offset="0%" style="stop-color:#1E40AF;stop-opacity:1" />
      <stop offset="100%" style="stop-color:#1E3A8A;stop-opacity:1" />
    </linearGradient>
    <linearGradient id="gradient3" x1="0%" y1="0%" x2="100%" y2="100%">
      <stop offset="0%" style="stop-color:#10B981;stop-opacity:1" />
      <stop offset="100%" style="stop-color:#059669;stop-opacity:1" />
    </linearGradient>
  </defs>
</svg>